<svg xmlns="http://www.w3.org/2000/svg" xmlns:xlink="http://www.w3.org/1999/xlink" viewBox="0 0 508.98 205.04"><defs><style>.cls-1{fill:#084c82;}.cls-2{fill:url(#Degradado_sin_nombre_28);}.cls-3{fill:url(#Degradado_sin_nombre_54);}.cls-4{fill:url(#Degradado_sin_nombre_51);}.cls-5{fill:url(#Degradado_sin_nombre_26);}.cls-6{fill:url(#Degradado_sin_nombre_27);}.cls-7{fill:url(#Degradado_sin_nombre_87);}.cls-8{fill:#004d8b;}.cls-9{fill:url(#Degradado_sin_nombre_75);}.cls-10{fill:url(#Degradado_sin_nombre_45);}.cls-11{fill:#666;}</style><linearGradient id="Degradado_sin_nombre_28" x1="7041.45" y1="7064.87" x2="7041.45" y2="7064.87" gradientUnits="userSpaceOnUse"><stop offset="0.23" stop-color="#008eb9"/><stop offset="0.42" stop-color="#0074a7"/><stop offset="0.6" stop-color="#00619a"/><stop offset="0.8" stop-color="#005692"/><stop offset="1" stop-color="#00528f"/></linearGradient><linearGradient id="Degradado_sin_nombre_54" x1="7096.99" y1="7051.93" x2="7096.99" y2="7051.93" gradientUnits="userSpaceOnUse"><stop offset="0" stop-color="#008eb9"/><stop offset="0.15" stop-color="#007dad" stop-opacity="0.91"/><stop offset="0.35" stop-color="#006aa0" stop-opacity="0.82"/><stop offset="0.56" stop-color="#005d96" stop-opacity="0.75"/><stop offset="0.77" stop-color="#005591" stop-opacity="0.71"/><stop offset="1" stop-color="#00528f" stop-opacity="0.7"/></linearGradient><linearGradient id="Degradado_sin_nombre_51" x1="7100.88" y1="7056.33" x2="7104.57" y2="7054.2" gradientUnits="userSpaceOnUse"><stop offset="0" stop-color="#00528f" stop-opacity="0.7"/><stop offset="0.25" stop-color="#005e97" stop-opacity="0.76"/><stop offset="0.73" stop-color="#007cac" stop-opacity="0.91"/><stop offset="1" stop-color="#008eb9"/></linearGradient><linearGradient id="Degradado_sin_nombre_26" x1="7053.77" y1="7024.36" x2="7134.41" y2="7070.92" gradientUnits="userSpaceOnUse"><stop offset="0" stop-color="#e37b2d"/><stop offset="1" stop-color="#fa9d3f"/></linearGradient><linearGradient id="Degradado_sin_nombre_27" x1="6979.18" y1="7103.16" x2="7101.37" y2="7173.71" gradientUnits="userSpaceOnUse"><stop offset="0.03" stop-color="#e37b2d"/><stop offset="1" stop-color="#fa9d3f"/></linearGradient><linearGradient id="Degradado_sin_nombre_87" x1="6999.48" y1="7108.46" x2="6999.48" y2="7108.46" gradientUnits="userSpaceOnUse"><stop offset="0.13" stop-color="#fa9d3f"/><stop offset="1" stop-color="#e37b2d"/></linearGradient><linearGradient id="Degradado_sin_nombre_75" x1="6942.38" y1="7184.75" x2="7107.84" y2="7019.29" gradientUnits="userSpaceOnUse"><stop offset="0" stop-color="#084c82"/><stop offset="0.23" stop-color="#084f85"/><stop offset="0.41" stop-color="#08598f"/><stop offset="0.57" stop-color="#08699f"/><stop offset="0.72" stop-color="#0780b6"/><stop offset="0.77" stop-color="#078ac0"/></linearGradient><linearGradient id="Degradado_sin_nombre_45" x1="7081.75" y1="7039.35" x2="7150.69" y2="7108.29" gradientUnits="userSpaceOnUse"><stop offset="0" stop-color="#084c82"/><stop offset="1" stop-color="#0797cd"/></linearGradient></defs><title>Logo2</title><g id="Logo"><path class="cls-1" d="M7055.07,7265.48" transform="translate(-6947.47 -7000.97)"/><path class="cls-1" d="M7149.17,7022.8" transform="translate(-6947.47 -7000.97)"/><path class="cls-1" d="M7019.77,7130.62" transform="translate(-6947.47 -7000.97)"/><path class="cls-2" d="M7041.45,7064.87" transform="translate(-6947.47 -7000.97)"/><path class="cls-3" d="M7097,7051.93" transform="translate(-6947.47 -7000.97)"/><path class="cls-4" d="M7098.69,7052.53l8.07,5.46" transform="translate(-6947.47 -7000.97)"/><path class="cls-5" d="M7088.09,7006.37a34.1,34.1,0,0,0-25.91,7.54c-9.67,8.15-12.17,19.52-13.35,24.88a57.08,57.08,0,0,0-.6,19.86c.63,5.43,1,8.14,2.3,8.79,4.39,2.12,10.28-16.57,27.79-26.25,4.51-2.49,13.13-7.11,24.61-6.18,2.42.2,13.68,1.12,22.22,9a98.94,98.94,0,0,1,8.17,8.58c4.21,5.11,5.8,8.28,7,7.82,1.84-.74.27-9.86.19-10.35a42.28,42.28,0,0,0-3.78-11.5,63.54,63.54,0,0,0-20.46-23.05,56.79,56.79,0,0,0-18.74-7.76A59.42,59.42,0,0,0,7088.09,7006.37Z" transform="translate(-6947.47 -7000.97)"/><path class="cls-6" d="M6953.82,7148.46c.08-.11,6.84-13.34,7-13.47s8.9-10.83,9-10.91a60,60,0,0,1,13.76-10.49,88.52,88.52,0,0,1,19.54-7.21c6.68-1.27,13.14-1.83,13.36-1.84,9.38-.34,9.2-.35,9.38-.34l13.57,1.16h.14l21.39,3.09,14,1.64c.7.12,7.61,1.75,8.32,1.75l13.34.38a2.24,2.24,0,0,0,.63-.1l11.78-3.85.63-.27,8.17-4.59c.24-.13,2.82-2,3-2.2l3.9-3.25c2.39-1,4.34-6.95,5.54-4.91l.8,1.59c.39.65.53,12.05.53,12.83v4.21a21.76,21.76,0,0,1-1.16,7.48c-1.58,4.21-2.62,8.64-5.1,12.88-1.71,2.92-3.61,6.8-6.3,8.62l-4.86,4a3.31,3.31,0,0,0-.49.5c-1,1.2-1.33,1.15-2.63,1.95l-.55.41a39.9,39.9,0,0,1-11.19,7.14c-1.27.52-2.5,1-3.68,1.31-.33.16-10.57,2.85-11,3s-9.26.7-9.68.77l-13.78-.61c-.32.06-14.26-1.9-14.58-1.93l-29.53-4.06c-12.21-1.27-14.71-.83-17.64-.76a22.62,22.62,0,0,0-6.89.19c-10.19,1.49-11.54,1.26-12.87,1.86l-5.55,2.51c-6.1,1.66-14.34,10.18-14.88,10.62l-5.74,9.41a32.55,32.55,0,0,0-3.47,6.15c-2.54,1.69-2.83-5.65-2.49-8.14.69-5,1.06-7.16,1.75-12.17.45-3.3,1.12-3.1,1.58-6.4,0-.15,2.81-7.72,2.9-7.95" transform="translate(-6947.47 -7000.97)"/><path class="cls-7" d="M6999.48,7108.46" transform="translate(-6947.47 -7000.97)"/><path class="cls-8" d="M7098.4,7062.43" transform="translate(-6947.47 -7000.97)"/><path class="cls-9" d="M7089.21,7004.09c0,.36-2.49.3-6.05.58-4.54.36-13.06,1-20.69,6.17a36,36,0,0,0-12.16,14.66c-2.86,6.16-3.44,11.83-3.91,16.43a76.89,76.89,0,0,0-.23,11.14c.2,6.84.93,11.83,2.18,20.25.43,2.92,1.15,7.17,2.6,15.68,1.71,10.08,1.91,11,2.6,15.21,1.75,10.6,2.62,15.9,3,20.6.86,9.59,1.58,17.64-.85,27.57a46.17,46.17,0,0,1-6.06,14.88c-2.08,3.2-4.27,5.46-8.67,10a133.05,133.05,0,0,1-10.13,9.31,62.17,62.17,0,0,1-8.21,6.14,61.49,61.49,0,0,1-8.9,4.53,92.28,92.28,0,0,1-14.72,4.83c-4.74,1.2-8.35,1.82-10.88,2.23a91.31,91.31,0,0,1-17.71,1.72c-1.12,0-11.67-.22-11.77-1.68-.15-2.21,24.15-2.42,35.7-15.56a56.14,56.14,0,0,0,7.18-10.82,57.61,57.61,0,0,0,4-11.31c3-12.52,1.76-25,.81-32.27-1.84-13.94-3.59-15.5-6.39-30.13-3.52-18.41-6.15-32.05-2.83-48.36,3.42-16.81,10.79-26.65,12.43-28.78,7.94-10.26,16.8-14.77,23.11-18a79,79,0,0,1,35.89-8.14C7078.87,7001.11,7089.26,7003.33,7089.21,7004.09Z" transform="translate(-6947.47 -7000.97)"/><path class="cls-1" d="M7014.08,7090.64" transform="translate(-6947.47 -7000.97)"/><path class="cls-10" d="M7067.38,7060c-1-1.51.5-4.49,1.49-6.44a23.79,23.79,0,0,1,5.24-6.56,35.66,35.66,0,0,1,4.06-3.39,23.89,23.89,0,0,1,6-3.32c.57-.21.45-.14,3.57-1.07,2.28-.68,3.77-1.14,4.06-1.23,2.37-.71,7.09-1.14,12.74-.37,4.54.62,15.13,2.06,24.13,10.84a37,37,0,0,1,3.66,4.12,43.47,43.47,0,0,1,7.82,10,50.51,50.51,0,0,1,5.86,17.54,55.6,55.6,0,0,1-.36,17.72c-1,6.4-3.1,11.2-7.24,20.8a20,20,0,0,1-3.52,5.46c-.88,1-2.79,3.06-3.56,2.58s.85-4.16,1.6-10.65c.07-.62.15-3.7.3-9.83.18-7.3.18-7.9,0-9.24a26.62,26.62,0,0,0-3.1-8.58,28.52,28.52,0,0,0-2.39-3.52,31.58,31.58,0,0,0-3.88-4.12,146.33,146.33,0,0,0-14.38-11.38c-6.11-4.11-9.16-6.17-12.4-7.41-3.43-1.31-7.9-3-13.61-2.57-1.26.09-5,.48-8.88,1C7069.86,7060.94,7068.12,7061.13,7067.38,7060Z" transform="translate(-6947.47 -7000.97)"/><path class="cls-1" d="M7075,7055" transform="translate(-6947.47 -7000.97)"/><path class="cls-1" d="M7109.41,7032.1" transform="translate(-6947.47 -7000.97)"/></g><g id="Slogan"><path class="cls-1" d="M7172.67,7119.82v37.06h-17.92V7057.1h29.66q9.93,0,15.19,2.82T7209,7070q4.14,7.23,4.14,17.76a47.78,47.78,0,0,1-2.21,14.4,26.56,26.56,0,0,1-6.23,11,21.28,21.28,0,0,1-7.8,5.33q-3.78,1.32-11.83,1.32Zm-.61-18.13h11.47q6.55,0,9.21-4a16.4,16.4,0,0,0,2.65-9.21q0-6.06-3-9.65t-9-3.58h-11.42Z" transform="translate(-6947.47 -7000.97)"/><path class="cls-1" d="M7235.24,7156.88H7219.3v-73.83h15.06v13.74q3.47-15.34,12-15.35a26.27,26.27,0,0,1,3,.22v21.49c-3.34,0-5.94.69-7.8,2.05s-3.37,3.81-4.55,7.35-1.76,8.29-1.76,14.29Z" transform="translate(-6947.47 -7000.97)"/><path class="cls-1" d="M7278.75,7081.52q12.73,0,19.86,11t7.13,27.63q0,16.38-7.4,27.31t-19.69,10.92q-11.91,0-19-10.82t-7.14-27.77q0-11.77,3.23-20a34.13,34.13,0,0,1,8.83-13.27Q7270.17,7081.52,7278.75,7081.52Zm.45,14.25c-3.12,0-5.46,1.6-7,4.79s-2.36,9.54-2.36,19q0,13.08,2.25,18.78t7,5.71c2.78,0,5-1.62,6.76-4.86s2.58-9.42,2.58-18.53q0-14.55-2.28-19.74T7279.2,7095.77Z" transform="translate(-6947.47 -7000.97)"/><path class="cls-1" d="M7329.72,7055.06v21.78h-16.43v-21.78Zm0,28v73.83h-16.43v-73.83Z" transform="translate(-6947.47 -7000.97)"/><path class="cls-1" d="M7382.08,7100.89l-12,4.24q-2.1-10-10.86-10-8.28,0-8.27,6.67a5.83,5.83,0,0,0,1.51,4.21c1,1.05,3.65,1.93,7.92,2.66q9.53,1.67,14.11,3.86a15.87,15.87,0,0,1,7.25,7.38,27.76,27.76,0,0,1,2.68,12.79q0,11.41-6.54,18.57t-18.28,7.16q-21.27,0-25.41-21.85l13.84-2.71q1.69,9.94,12.35,9.94a11.8,11.8,0,0,0,6.89-1.94,6.06,6.06,0,0,0,2.81-5.24q0-5.13-6.23-6.07-16.87-2.74-22.19-8.56t-5.32-16.2q0-10.51,6.17-17.39t17.31-6.87q8.84,0,14.12,4.6T7382.08,7100.89Z" transform="translate(-6947.47 -7000.97)"/><path class="cls-1" d="M7439.58,7156.88h-15.93a68.67,68.67,0,0,1-.78-11.55q-4.19,7.89-8.34,10.49a17.43,17.43,0,0,1-9.44,2.59,15.8,15.8,0,0,1-12.63-5.63q-4.81-5.62-4.82-15.13a29.19,29.19,0,0,1,2.81-12.79,20.21,20.21,0,0,1,9-9.17q6.21-3.33,22.68-4.94v-4.23q0-10.76-8.08-10.75-8.64,0-9.62,10.75l-15.16-1.91q1.48-12.57,9-17.83a28.84,28.84,0,0,1,17-5.26,32.15,32.15,0,0,1,10.7,1.75,16.81,16.81,0,0,1,7.83,5.26,19.44,19.44,0,0,1,3.8,7.42q1,3.92,1,13.63v33.48Q7438.59,7152.72,7439.58,7156.88Zm-17.42-35.38q-17.2,2.27-17.21,13.81a12,12,0,0,0,1.82,6.69,5.79,5.79,0,0,0,5.16,2.82q4.35,0,7.29-4.79a22.18,22.18,0,0,0,2.94-11.81Z" transform="translate(-6947.47 -7000.97)"/><path class="cls-11" d="M7447.25,7089.58a8.84,8.84,0,0,1-6.54-2.75,9.31,9.31,0,0,1,0-13.08,8.82,8.82,0,0,1,6.53-2.74,8.69,8.69,0,0,1,6.54,2.77,9.28,9.28,0,0,1,0,13A8.71,8.71,0,0,1,7447.25,7089.58Zm7.49-9.28a7.55,7.55,0,0,0-2.18-5.44,7,7,0,0,0-5.27-2.27,7.2,7.2,0,0,0-5.34,2.26,7.79,7.79,0,0,0,0,10.88,7.31,7.31,0,0,0,10.58,0A7.51,7.51,0,0,0,7454.74,7080.3Zm-9.11,1.09v4.31h-2.79v-10.82h4.82a4.71,4.71,0,0,1,3.17.9,3,3,0,0,1,1,2.37,2.88,2.88,0,0,1-1.89,2.79l2.06,4.76h-3.08l-1.73-4.31Zm0-4.53v2.63h1.45a2.45,2.45,0,0,0,1.52-.35,1.26,1.26,0,0,0,.41-1,1.29,1.29,0,0,0-.25-.77,1.06,1.06,0,0,0-.55-.42,5.76,5.76,0,0,0-1.18-.08Z" transform="translate(-6947.47 -7000.97)"/><path class="cls-11" d="M7215.21,7171.92l-3.48,1.57c-.47-1.87-1.46-2.8-3-2.8s-2.42.71-2.42,2.13a2.33,2.33,0,0,0,.45,1.44,4,4,0,0,0,2.05,1,16.84,16.84,0,0,1,3.91,1.47,5.81,5.81,0,0,1,2.09,2.4,8,8,0,0,1,.85,3.7,8.73,8.73,0,0,1-1.82,5.55,6.44,6.44,0,0,1-5.4,2.34,6.69,6.69,0,0,1-4.58-1.66,8.31,8.31,0,0,1-2.48-4.91l3.79-1.16c.42,2.2,1.6,3.31,3.55,3.31a2.74,2.74,0,0,0,2.09-.74,2.49,2.49,0,0,0,.69-1.76,2.09,2.09,0,0,0-.62-1.61,6.36,6.36,0,0,0-2.42-1.07,9.8,9.8,0,0,1-4.76-2.56,7,7,0,0,1-1.41-4.74,8.36,8.36,0,0,1,1.69-5.32,5.51,5.51,0,0,1,4.6-2.17Q7213.73,7166.35,7215.21,7171.92Z" transform="translate(-6947.47 -7000.97)"/><path class="cls-11" d="M7222.88,7172.5a5.19,5.19,0,0,1,4.61,2.62,12,12,0,0,1,1.66,6.55,11.54,11.54,0,0,1-1.72,6.48,5.28,5.28,0,0,1-4.57,2.59,5,5,0,0,1-4.42-2.57,11.87,11.87,0,0,1-1.66-6.58,13.24,13.24,0,0,1,.75-4.74,8.17,8.17,0,0,1,2.05-3.15A4.69,4.69,0,0,1,7222.88,7172.5Zm.1,3.38a1.75,1.75,0,0,0-1.63,1.14,12,12,0,0,0-.55,4.51,13.8,13.8,0,0,0,.52,4.46,1.76,1.76,0,0,0,1.64,1.35,1.78,1.78,0,0,0,1.57-1.15,10.78,10.78,0,0,0,.6-4.4,13.82,13.82,0,0,0-.53-4.68A1.72,1.72,0,0,0,7223,7175.88Z" transform="translate(-6947.47 -7000.97)"/><path class="cls-11" d="M7234.88,7176.89v13.48h-3.71v-13.48h-1.5v-4h1.5a20.87,20.87,0,0,1,.29-3.94,4,4,0,0,1,1.35-2.2,4.25,4.25,0,0,1,2.95-1,10.3,10.3,0,0,1,1.77.19v4a13,13,0,0,0-1.36-.09,1,1,0,0,0-1,.56,4.65,4.65,0,0,0-.25,1.8v.66h2.34v4Z" transform="translate(-6947.47 -7000.97)"/><path class="cls-11" d="M7242.93,7176.89v7.4a3.82,3.82,0,0,0,.3,1.85c.21.32.69.47,1.44.47a11.37,11.37,0,0,0,1.22-.07v3.83a11.85,11.85,0,0,1-2.4.38,4.12,4.12,0,0,1-3.38-1.23c-.66-.83-1-2.32-1-4.48v-8.15h-2v-4h2.26l.31-5.17,3.29-.34v5.51h2.78v4Z" transform="translate(-6947.47 -7000.97)"/><path class="cls-11" d="M7268.34,7166.72l-4.39,23.65h-4l-2.88-15.65-2.77,15.65h-4l-4.5-23.65H7250l2.41,14.43c0,.07.05.33.14.77,0,.16.08.4.14.72l2.86-15.92h3.78l2.94,15.92c.06-.3.14-.79.25-1.49l2.48-14.43Z" transform="translate(-6947.47 -7000.97)"/><path class="cls-11" d="M7280.7,7190.37H7277a16.63,16.63,0,0,1-.18-2.74,6.46,6.46,0,0,1-1.93,2.49,4,4,0,0,1-2.2.62,3.65,3.65,0,0,1-2.93-1.34,5.38,5.38,0,0,1-1.12-3.59,7.13,7.13,0,0,1,.65-3,4.78,4.78,0,0,1,2.1-2.17,15.17,15.17,0,0,1,5.27-1.17v-1c0-1.7-.63-2.55-1.88-2.55s-2.08.85-2.23,2.55L7269,7178a5.7,5.7,0,0,1,2.08-4.23,6.63,6.63,0,0,1,4-1.25,7.3,7.3,0,0,1,2.48.42,3.91,3.91,0,0,1,1.82,1.25,4.63,4.63,0,0,1,.88,1.76,15.59,15.59,0,0,1,.23,3.23v7.94A16.46,16.46,0,0,0,7280.7,7190.37Zm-4-8.39c-2.67.36-4,1.46-4,3.28a3,3,0,0,0,.42,1.59,1.34,1.34,0,0,0,1.2.66,1.94,1.94,0,0,0,1.69-1.13,5.31,5.31,0,0,0,.69-2.8Z" transform="translate(-6947.47 -7000.97)"/><path class="cls-11" d="M7286.66,7190.37H7283v-17.5h3.5v3.26q.81-3.65,2.79-3.64a4.65,4.65,0,0,1,.69.05v5.09a3,3,0,0,0-1.81.49,3.49,3.49,0,0,0-1.06,1.74,11.41,11.41,0,0,0-.41,3.39Z" transform="translate(-6947.47 -7000.97)"/><path class="cls-11" d="M7303,7182.49h-8.32c0,.31,0,.58,0,.81a4.6,4.6,0,0,0,.73,2.83,2.18,2.18,0,0,0,1.76.95c1.28,0,2-.92,2.3-2.76l3.45.35q-1.44,6.08-5.87,6.07a5.2,5.2,0,0,1-3.29-1.05,7.7,7.7,0,0,1-2.23-3.06,12.1,12.1,0,0,1-.87-4.82,11.65,11.65,0,0,1,1.76-6.74,5.15,5.15,0,0,1,8.81-.18Q7303,7177.28,7303,7182.49Zm-8.33-3h4.59c-.12-2.4-.85-3.61-2.19-3.61S7294.86,7177.09,7294.69,7179.49Z" transform="translate(-6947.47 -7000.97)"/><path class="cls-11" d="M7310.85,7166.72h5.33a7.91,7.91,0,0,1,4.86,1.22,10.42,10.42,0,0,1,2.87,3.86,15.52,15.52,0,0,1,1.26,6.68A15.23,15.23,0,0,1,7323,7187a6.9,6.9,0,0,1-6.1,3.4h-6Zm4,4.35v14.85h1.69a3.52,3.52,0,0,0,3.32-2.26,13.37,13.37,0,0,0,.46-9.29,5.4,5.4,0,0,0-1.54-2.57,3.4,3.4,0,0,0-2.21-.73Z" transform="translate(-6947.47 -7000.97)"/><path class="cls-11" d="M7338.63,7182.49h-8.32c0,.31,0,.58,0,.81a4.6,4.6,0,0,0,.74,2.83,2.18,2.18,0,0,0,1.76.95c1.27,0,2-.92,2.29-2.76l3.46.35q-1.46,6.08-5.88,6.07a5.17,5.17,0,0,1-3.28-1.05,7.61,7.61,0,0,1-2.23-3.06,12.1,12.1,0,0,1-.88-4.82,11.73,11.73,0,0,1,1.76-6.74,5.32,5.32,0,0,1,4.53-2.57,5.24,5.24,0,0,1,4.28,2.39Q7338.63,7177.28,7338.63,7182.49Zm-8.34-3h4.6c-.12-2.4-.85-3.61-2.19-3.61S7330.46,7177.09,7330.29,7179.49Z" transform="translate(-6947.47 -7000.97)"/><path class="cls-11" d="M7350.56,7172.87l-4.43,17.5h-3l-4.45-17.5h4l2.49,11.09,2.55-11.09Z" transform="translate(-6947.47 -7000.97)"/><path class="cls-11" d="M7363.16,7182.49h-8.32c0,.31,0,.58,0,.81a4.6,4.6,0,0,0,.73,2.83,2.18,2.18,0,0,0,1.76.95c1.28,0,2-.92,2.3-2.76l3.45.35q-1.44,6.08-5.87,6.07a5.2,5.2,0,0,1-3.29-1.05,7.59,7.59,0,0,1-2.22-3.06,11.92,11.92,0,0,1-.88-4.82,11.73,11.73,0,0,1,1.76-6.74,5.15,5.15,0,0,1,8.81-.18Q7363.16,7177.28,7363.16,7182.49Zm-8.33-3h4.59c-.12-2.4-.84-3.61-2.18-3.61S7355,7177.09,7354.83,7179.49Z" transform="translate(-6947.47 -7000.97)"/><path class="cls-11" d="M7364.91,7190.37v-23.65h3.82v23.65Z" transform="translate(-6947.47 -7000.97)"/><path class="cls-11" d="M7376.57,7172.5a5.2,5.2,0,0,1,4.61,2.62,12.08,12.08,0,0,1,1.65,6.55,11.46,11.46,0,0,1-1.72,6.48,5.26,5.26,0,0,1-4.57,2.59,5.06,5.06,0,0,1-4.42-2.57,12,12,0,0,1-1.65-6.58,13.48,13.48,0,0,1,.74-4.74,8.19,8.19,0,0,1,2.06-3.15A4.69,4.69,0,0,1,7376.57,7172.5Zm.1,3.38A1.74,1.74,0,0,0,7375,7177a12,12,0,0,0-.55,4.51,13.52,13.52,0,0,0,.52,4.46c.35.9.89,1.35,1.63,1.35a1.77,1.77,0,0,0,1.57-1.15,10.78,10.78,0,0,0,.6-4.4,13.56,13.56,0,0,0-.53-4.68A1.72,1.72,0,0,0,7376.67,7175.88Z" transform="translate(-6947.47 -7000.97)"/><path class="cls-11" d="M7384.58,7196.28v-23.41h3.51v2.56q1-2.93,3.41-2.93a3.92,3.92,0,0,1,3.43,2.28,13.2,13.2,0,0,1,1.34,6.63c0,3.09-.45,5.41-1.35,7a4,4,0,0,1-3.51,2.35,3.23,3.23,0,0,1-3.13-2.31v7.85Zm3.7-13.57a13.2,13.2,0,0,0,.17,2.57,2.76,2.76,0,0,0,.7,1.27,1.58,1.58,0,0,0,1.17.56c.52,0,1-.36,1.39-1.08s.62-2.31.62-4.77c0-3.46-.67-5.18-2-5.18a1.73,1.73,0,0,0-1.4.91,5.78,5.78,0,0,0-.63,3.12Z" transform="translate(-6947.47 -7000.97)"/><path class="cls-11" d="M7416.55,7190.37h-3.82v-9.68a24.06,24.06,0,0,0-.09-2.67,1.85,1.85,0,0,0-.46-1,1.38,1.38,0,0,0-1.05-.41,2,2,0,0,0-1.28.61c-.43.41-.65,1.57-.65,3.49v9.68h-3.82v-9.68a15.23,15.23,0,0,0-.14-2.72,1.9,1.9,0,0,0-.53-1,1.34,1.34,0,0,0-1-.39,1.59,1.59,0,0,0-1.47.85,7.36,7.36,0,0,0-.48,3.25v9.68h-3.7v-17.5h3.59v2.67c.61-2,1.82-3,3.64-3,1.65,0,2.84,1,3.58,3,.71-2,2-3,3.75-3a3.46,3.46,0,0,1,2.2.72,3.82,3.82,0,0,1,1.32,1.85,13.2,13.2,0,0,1,.4,3.93Z" transform="translate(-6947.47 -7000.97)"/><path class="cls-11" d="M7430.64,7182.49h-8.32c0,.31,0,.58,0,.81a4.6,4.6,0,0,0,.74,2.83,2.18,2.18,0,0,0,1.76.95c1.27,0,2-.92,2.29-2.76l3.46.35c-1,4.05-2.92,6.07-5.88,6.07a5.17,5.17,0,0,1-3.28-1.05,7.7,7.7,0,0,1-2.23-3.06,12.1,12.1,0,0,1-.87-4.82,11.65,11.65,0,0,1,1.76-6.74,5.29,5.29,0,0,1,4.52-2.57,5.23,5.23,0,0,1,4.28,2.39Q7430.64,7177.28,7430.64,7182.49Zm-8.34-3h4.6c-.12-2.4-.85-3.61-2.19-3.61S7422.48,7177.09,7422.3,7179.49Z" transform="translate(-6947.47 -7000.97)"/><path class="cls-11" d="M7443.63,7190.37h-3.82v-9.82a18.92,18.92,0,0,0-.1-2.45,2.17,2.17,0,0,0-.5-1.12,1.26,1.26,0,0,0-1-.45q-2,0-2,4v9.82h-3.82v-17.5h3.55v3a6.4,6.4,0,0,1,1.74-2.72,3.18,3.18,0,0,1,1.85-.61,3.68,3.68,0,0,1,3,1.35q1.13,1.33,1.13,5.28Z" transform="translate(-6947.47 -7000.97)"/><path class="cls-11" d="M7450.42,7176.89v7.4a3.79,3.79,0,0,0,.31,1.85c.2.32.69.47,1.44.47a11.19,11.19,0,0,0,1.21-.07v3.83a11.88,11.88,0,0,1-2.39.38,4.11,4.11,0,0,1-3.38-1.23c-.67-.83-1-2.32-1-4.48v-8.15h-2v-4h2.27l.3-5.17,3.29-.34v5.51h2.78v4Z" transform="translate(-6947.47 -7000.97)"/></g></svg>